<svg width="24" height="24" viewBox="0 0 24 24" fill="none" xmlns="http://www.w3.org/2000/svg">
<path d="M10.478 21.125C11.4834 21.2921 12.5094 21.2927 13.515 21.127M10.478 21.125C8.31845 20.7645 6.35578 19.6497 4.94091 17.9788C3.52604 16.308 2.74971 14.1894 2.75 12C2.75036 10.2353 3.25548 8.50764 4.20575 7.02071C5.15602 5.53379 6.51179 4.34971 8.11307 3.60819C9.71435 2.86668 11.4943 2.59867 13.243 2.83579C14.9916 3.07291 16.6359 3.80527 17.9819 4.94644C19.3279 6.08762 20.3193 7.59 20.8393 9.27629C21.3593 10.9626 21.3861 12.7624 20.9165 14.4634C20.4469 16.1644 19.5005 17.6956 18.1891 18.8763C16.8776 20.057 15.2558 20.838 13.515 21.127M10.478 21.125L10.477 16.12H8.58C8.42087 16.12 8.26826 16.0568 8.15574 15.9443C8.04321 15.8317 7.98 15.6791 7.98 15.52V13.682C7.98 13.5229 8.04321 13.3702 8.15574 13.2577C8.26826 13.1452 8.42087 13.082 8.58 13.082H10.477V9.94999C10.477 9.15434 10.7931 8.39128 11.3557 7.82867C11.9183 7.26606 12.6814 6.94999 13.477 6.94999H15.287C15.5522 6.94999 15.8066 7.05534 15.9941 7.24288C16.1816 7.43042 16.287 7.68477 16.287 7.94999V8.98999C16.287 9.2552 16.1816 9.50956 15.9941 9.69709C15.8066 9.88463 15.5522 9.98999 15.287 9.98999H14.515C14.2498 9.98999 13.9954 10.0953 13.8079 10.2829C13.6204 10.4704 13.515 10.7248 13.515 10.99V13.082H15.812C15.8991 13.082 15.9851 13.1009 16.0642 13.1375C16.1432 13.1741 16.2133 13.2275 16.2696 13.2939C16.326 13.3603 16.3672 13.4382 16.3904 13.5221C16.4136 13.6061 16.4182 13.6941 16.404 13.78L16.154 15.284C16.1152 15.5175 15.9948 15.7296 15.8142 15.8827C15.6337 16.0358 15.4047 16.1199 15.168 16.12H13.515V21.127" stroke="white" stroke-width="1.25" stroke-linecap="round"/>
</svg>
