<svg width="24" height="24" viewBox="0 0 24 24" fill="none" xmlns="http://www.w3.org/2000/svg">
<path fill-rule="evenodd" clip-rule="evenodd" d="M17.045 8.93698C17.0857 8.67891 17.0569 8.41465 16.9616 8.17141C16.8662 7.92817 16.7077 7.71474 16.5025 7.55308C16.2972 7.39143 16.0526 7.2874 15.7938 7.2517C15.535 7.216 15.2713 7.24993 15.03 7.34998L6.527 10.865C5.449 11.311 5.607 12.885 6.753 13.107L8.344 13.415C8.785 13.5 9.243 13.42 9.628 13.189L10.092 12.912C9.95977 13.1742 9.93005 13.4762 10.0086 13.7592C10.0872 14.0421 10.2685 14.2856 10.517 14.442L14.167 16.73C14.332 16.8335 14.5201 16.8944 14.7144 16.9072C14.9087 16.92 15.1032 16.8844 15.2804 16.8035C15.4575 16.7226 15.6118 16.599 15.7294 16.4437C15.847 16.2885 15.9242 16.1064 15.954 15.914L17.045 8.93698ZM11.141 13.447L14.171 10.542C14.711 10.025 14.057 9.16898 13.416 9.55198L9.024 12.181C8.88697 12.2627 8.72467 12.2912 8.568 12.261L6.977 11.953L15.479 8.43798C15.5272 8.418 15.5799 8.41122 15.6316 8.41835C15.6834 8.42547 15.7323 8.44624 15.7733 8.47852C15.8143 8.5108 15.846 8.55342 15.8651 8.60201C15.8842 8.6506 15.8901 8.7034 15.882 8.75498L14.792 15.734L11.141 13.447Z" fill="white"/>
<path fill-rule="evenodd" clip-rule="evenodd" d="M12 2C6.477 2 2 6.477 2 12C2 17.523 6.477 22 12 22C17.523 22 22 17.523 22 12C22 6.477 17.523 2 12 2ZM3.176 12C3.176 9.65973 4.10567 7.41531 5.76049 5.76049C7.41531 4.10567 9.65973 3.176 12 3.176C14.3403 3.176 16.5847 4.10567 18.2395 5.76049C19.8943 7.41531 20.824 9.65973 20.824 12C20.824 14.3403 19.8943 16.5847 18.2395 18.2395C16.5847 19.8943 14.3403 20.824 12 20.824C9.65973 20.824 7.41531 19.8943 5.76049 18.2395C4.10567 16.5847 3.176 14.3403 3.176 12Z" fill="white"/>
</svg>
